<svg width="1000" height="1000" viewBox="0 0 1000 1000" fill="none" xmlns="http://www.w3.org/2000/svg">
<path d="M494.945 670.472C608.367 633.538 663.315 655.703 679.639 673.423V689.24C661.893 656.47 542.472 656.306 494.945 689.24V670.472Z" fill="#FF914C"/>
<path d="M688.145 670.325C801.567 633.391 856.515 655.556 872.839 673.275V689.093C855.092 656.322 735.672 656.159 688.145 689.093V670.325Z" fill="#FF914C"/>
<path d="M660.068 329.808L922.219 65.9258L826.034 261.464H992L680.814 546.229L818.49 329.808H660.068Z" fill="#FF914C"/>
<path d="M683.657 930V765.957C750.383 765.957 811.509 741.948 858.89 702.087L941.594 845.533C869.338 898.636 780.156 930 683.657 930Z" fill="#FF914C"/>
<path d="M481.938 97.6828C498.186 97.6828 511.535 110.927 511.535 127.264C511.535 143.602 498.364 156.846 482.116 156.846H405.599H346.432C330.185 156.846 316.835 143.602 316.835 127.264C316.835 110.927 330.185 97.6828 346.432 97.6828H481.938Z" fill="#FF914C"/>
<path fill-rule="evenodd" clip-rule="evenodd" d="M346.909 216.009H247.068C230.82 216.009 217.471 229.253 217.471 245.591C217.471 261.868 230.722 275.074 246.888 275.172C246.948 275.172 247.008 275.172 247.068 275.172L306.059 275.172C318.064 254.303 331.742 234.521 346.909 216.009Z" fill="#FF914C"/>
<path d="M307.379 334.335C323.627 334.335 336.976 347.579 336.976 363.917C336.976 380.254 323.805 393.498 307.557 393.498H269.961H259.426H171.873C171.813 393.498 171.753 393.498 171.694 393.498C155.527 393.4 142.276 380.194 142.276 363.917C142.276 347.579 155.626 334.335 171.873 334.335L277.718 334.335L307.379 334.335Z" fill="#FF914C"/>
<path d="M249.034 452.662C265.281 452.662 278.631 465.906 278.631 482.243C278.631 498.581 265.46 511.825 249.212 511.825H248.461H151.548H113.528C97.2802 511.825 83.9305 498.581 83.9305 482.243C83.9305 465.906 97.2802 452.662 113.528 452.662H249.034Z" fill="#FF914C"/>
<path d="M303.351 570.988C319.598 570.988 332.948 584.232 332.948 600.569C332.948 616.858 319.855 630.072 303.674 630.15C303.626 630.151 303.577 630.151 303.529 630.151H269.989H183.783H167.845C151.597 630.151 138.248 616.907 138.248 600.569C138.248 584.232 151.597 570.988 167.845 570.988L254.993 570.987L303.351 570.988Z" fill="#FF914C"/>
<path d="M335.577 689.314C351.825 689.314 365.174 702.558 365.174 718.895C365.174 735.233 352.003 748.477 335.755 748.477H330.367H233.562H200.071C183.824 748.477 170.474 735.233 170.474 718.895C170.474 702.558 183.824 689.314 200.071 689.314L294.47 689.313L335.577 689.314Z" fill="#FF914C"/>
<path d="M433.599 807.64C449.846 807.64 463.196 820.884 463.196 837.221C463.196 853.559 450.025 866.803 433.777 866.803H298.093C281.845 866.803 268.496 853.559 268.496 837.221C268.496 820.884 281.845 807.64 298.093 807.64H433.599Z" fill="#FF914C"/>
<path d="M173.831 216.009C190.078 216.009 203.428 229.253 203.428 245.591C203.428 261.928 190.257 275.172 174.009 275.172H115.477C99.2296 275.172 85.88 261.928 85.88 245.591C85.88 229.253 99.2296 216.009 115.477 216.009H173.831Z" fill="#FF914C"/>
<path d="M95.9508 570.988C112.199 570.988 125.548 584.232 125.548 600.569C125.548 616.907 112.377 630.151 96.1291 630.151H37.5973C21.3496 630.151 8 616.907 8 600.569C8 584.232 21.3496 570.988 37.5973 570.988H95.9508Z" fill="#FF914C"/>
<path d="M124.595 688.722C140.842 688.722 154.192 701.966 154.192 718.303C154.192 734.641 141.021 747.885 124.773 747.885H66.2411C49.9935 747.885 36.6438 734.641 36.6438 718.303C36.6438 701.966 49.9935 688.722 66.2411 688.722H124.595Z" fill="#FF914C"/>
<path d="M306.059 275.172C318.064 254.303 331.742 234.521 346.909 216.009H382.574C398.822 216.009 412.171 229.253 412.171 245.591C412.171 261.928 399 275.172 382.752 275.172H345.156C345.096 275.172 345.036 275.172 344.976 275.172H306.059Z" fill="#FF914C"/>
<path fill-rule="evenodd" clip-rule="evenodd" d="M248.461 511.825C248.197 505.583 248.064 499.307 248.064 493C248.064 479.4 248.684 465.944 249.898 452.661H269.96C286.208 452.661 299.379 439.417 299.379 423.079C299.379 406.802 286.128 393.596 269.961 393.498H259.426C264.147 373.197 270.281 353.44 277.718 334.335H345.155C361.402 334.335 374.574 321.091 374.574 304.753C374.574 288.476 361.322 275.27 345.156 275.172H382.752C399 275.172 412.171 261.928 412.171 245.591C412.171 229.253 398.822 216.009 382.574 216.009L425.105 216.009C441.353 216.009 454.524 202.765 454.524 186.427C454.524 170.09 441.175 156.846 424.927 156.846H405.599C481.217 93.8722 578.422 56 684.461 56V220.043C533.919 220.043 411.88 342.25 411.88 493C411.88 643.75 533.919 765.957 684.461 765.957V930C565.87 930 458.328 882.631 379.674 805.757C390.815 801.546 398.743 790.733 398.743 778.058C398.743 761.721 385.393 748.477 369.146 748.477L335.785 748.477H335.755H330.367C316.912 729.808 304.892 710.033 294.47 689.313H319.642C335.89 689.313 349.061 676.069 349.061 659.732C349.061 643.394 335.712 630.15 319.464 630.15L303.674 630.15L303.529 630.151H269.989C263.667 610.982 258.634 591.227 254.993 570.987H287.416C303.664 570.987 316.835 557.743 316.835 541.406C316.835 525.068 303.485 511.824 287.238 511.824L249.238 511.825H249.212H248.461ZM248.461 511.825H151.548C151.609 511.824 151.671 511.824 151.732 511.824L248.461 511.825ZM269.989 630.151H183.783C183.841 630.15 183.9 630.15 183.958 630.15L269.989 630.151ZM330.367 748.477H233.562L233.64 748.477L330.367 748.477ZM246.888 275.172H306.059L247.068 275.172C247.008 275.172 246.948 275.172 246.888 275.172Z" fill="#FF914C"/>
<path fill-rule="evenodd" clip-rule="evenodd" d="M679.639 556.466C663.315 538.746 608.367 516.582 494.945 553.515V664.906C542.472 631.972 661.893 632.135 679.639 664.906V556.466ZM671.134 561.886C656.958 548.432 609.239 531.603 510.741 559.645V644.22C552.015 619.214 655.722 619.338 671.134 644.22V561.886Z" fill="#FF914C"/>
<path fill-rule="evenodd" clip-rule="evenodd" d="M872.839 556.465C856.515 538.745 801.567 516.581 688.145 553.514V664.905C735.672 631.971 855.092 632.134 872.839 664.905V556.465ZM860.688 561.886C846.512 548.432 798.793 531.603 700.296 559.645V644.22C741.569 619.214 845.276 619.338 860.688 644.22V561.886Z" fill="#FF914C"/>
</svg>
